<svg width="3288" height="2472" viewBox="0 0 3288 2472" fill="none" xmlns="http://www.w3.org/2000/svg">
<path d="M2582.82 2296.13C2583.22 2296.33 2583.52 2296.13 2583.72 2295.53C2583.92 2295.03 2583.82 2294.53 2583.42 2294.13C2552.72 2263.33 2522.42 2232.53 2492.52 2201.63C2490.02 2199.03 2487.62 2196.53 2485.42 2194.13C2485.02 2193.73 2484.22 2193.93 2484.22 2194.63L2480.92 2283.23C2480.92 2283.63 2481.22 2284.03 2481.62 2284.03C2514.62 2290.23 2548.02 2294.23 2581.92 2295.83C2582.22 2295.93 2582.52 2296.03 2582.82 2296.13ZM1788.92 2311.03C1824.72 2296.53 1861.32 2291.73 1900.02 2292.63C1901.22 2292.63 1901.82 2292.03 1901.72 2290.83L1894.62 2189.53C1894.52 2188.93 1893.92 2188.73 1893.52 2189.13C1862.22 2222.13 1829.22 2256.03 1794.52 2291.03C1789.42 2296.23 1789.22 2303.93 1788.32 2310.53C1788.22 2310.83 1788.62 2311.13 1788.92 2311.03ZM1875.72 2130.53L1840.72 2005.93C1840.12 2003.93 1839.72 2003.93 1839.42 2006.03C1837.92 2017.33 1836.22 2028.03 1834.42 2038.13C1824.82 2092.33 1815.02 2146.63 1805.12 2201.13C1804.72 2203.43 1805.32 2203.73 1807.02 2202.13L1874.72 2134.83C1875.72 2133.63 1876.12 2132.03 1875.72 2130.53ZM2531.42 2001.43L2501.12 2132.73C2500.62 2134.93 2501.32 2137.23 2502.92 2138.83L2566.52 2199.33C2567.92 2200.73 2568.42 2200.43 2568.12 2198.53C2557.02 2133.43 2545.22 2067.73 2532.72 2001.53C2532.32 1999.33 2531.92 1999.33 2531.42 2001.43ZM2227.62 2292.13C2301.62 2269.73 2378.42 2269.23 2454.52 2280.53C2455.82 2280.73 2456.42 2280.13 2456.42 2278.83L2453.92 2168.43C2453.82 2166.23 2452.92 2164.13 2451.42 2162.63C2361.62 2075.03 2272.82 1987.13 2185.02 1899.03C2184.42 1898.43 2183.52 1898.43 2182.92 1899.03C2100.82 1982.43 2018.52 2065.73 1935.92 2148.83C1933.32 2151.43 1930.82 2151.53 1930.82 2155.93C1930.72 2201.03 1931.12 2245.13 1931.82 2288.03C1931.82 2288.53 1932.32 2289.03 1932.82 2288.93C1957.22 2287.13 1982.22 2288.73 2007.62 2293.73C2023.82 2296.93 2040.42 2300.23 2057.52 2303.73C2104.22 2313.23 2150.42 2312.33 2196.22 2300.93C2206.42 2298.33 2216.92 2295.43 2227.62 2292.13ZM2481.42 2076.93C2490.72 2021.73 2501.42 1967.53 2513.22 1912.33C2513.42 1911.33 2513.12 1910.23 2512.32 1909.53C2503.42 1900.83 2494.92 1891.43 2486.82 1881.43C2485.12 1879.23 2484.22 1879.53 2484.22 1882.33C2484.02 1918.03 2483.32 1954.33 2482.12 1991.03C2481.12 2018.83 2481.62 2049.33 2479.92 2077.23C2479.92 2077.33 2480.02 2077.33 2480.02 2077.43L2480.72 2077.53C2481.12 2077.43 2481.32 2077.33 2481.42 2076.93ZM1885.72 1762.63C1885.72 1761.83 1885.62 1761.03 1885.42 1760.33C1884.72 1757.73 1884.22 1757.73 1883.72 1760.43C1874.72 1810.93 1865.62 1861.63 1856.32 1912.53C1855.52 1917.03 1855.92 1922.43 1857.62 1928.53C1869.72 1972.33 1880.92 2015.13 1891.52 2056.93C1893.22 2063.53 1893.92 2063.43 1893.82 2056.63C1893.72 2052.33 1893.62 2048.03 1893.52 2043.63C1891.02 1951.03 1888.52 1857.43 1885.72 1762.63ZM2512.82 1883.93C2505.82 1840.93 2498.22 1799.53 2490.02 1759.53C2488.62 1752.73 2487.82 1752.83 2487.62 1759.73L2485.12 1855.33C2485.12 1856.43 2485.52 1857.53 2486.32 1858.33C2495.32 1867.33 2503.22 1876.23 2510.02 1885.13C2512.62 1888.23 2513.52 1887.83 2512.82 1883.93ZM2446.52 2084.43C2447.12 2085.03 2448.22 2084.63 2448.22 2083.73L2448.92 1840.03C2448.92 1839.73 2448.82 1839.53 2448.62 1839.33L2348.02 1730.63C2347.62 1730.23 2346.92 1730.23 2346.52 1730.63L2218.32 1861.83C2217.92 1862.23 2217.92 1862.83 2218.32 1863.23L2446.52 2084.43ZM1921.42 1636.73L1928.82 2081.03C1928.82 2082.03 1929.22 2082.13 1929.82 2081.43C1935.32 2075.93 1940.82 2070.23 1946.52 2064.53C2018.32 1992.23 2084.72 1925.33 2145.82 1863.83C2146.82 1862.83 2146.82 1861.23 2145.82 1860.33C2084.22 1798.93 2020.02 1734.43 1953.22 1666.83C1943.52 1657.03 1933.62 1646.83 1923.42 1636.03C1922.12 1634.53 1921.42 1634.73 1921.42 1636.73ZM2365.02 1712.23C2363.42 1713.83 2361.92 1715.53 2360.62 1717.33C2360.02 1718.13 2360.02 1719.33 2360.72 1720.03L2447.62 1816.23C2448.22 1816.93 2448.52 1816.83 2448.52 1815.83L2449.32 1625.63C2449.32 1625.03 2449.12 1624.93 2448.72 1625.43C2421.72 1654.63 2393.82 1683.63 2365.02 1712.23ZM1941.32 1488.43C1940.42 1488.43 1939.72 1489.03 1939.62 1489.93L1926.22 1571.93C1926.12 1572.53 1926.32 1573.03 1926.72 1573.43L2179.72 1825.13C2180.42 1825.83 2181.52 1825.83 2182.22 1825.13L2312.22 1694.63C2312.92 1693.93 2312.92 1692.83 2312.22 1692.13L2124.72 1489.13C2124.42 1488.73 2123.92 1488.53 2123.42 1488.53L1941.32 1488.43ZM2437.02 1489.43C2436.92 1489.03 2436.62 1488.73 2436.22 1488.73L2152.02 1488.33C2151.32 1488.33 2150.92 1489.13 2151.42 1489.63L2324.02 1680.93C2324.32 1681.23 2324.82 1681.23 2325.12 1680.93L2447.42 1559.13C2447.62 1558.93 2447.72 1558.73 2447.62 1558.43L2437.02 1489.43ZM2665.62 1347.13C2665.62 1346.63 2665.22 1346.13 2664.62 1346.13L2645.32 1346.03C2644.72 1346.03 2644.32 1346.43 2644.32 1347.03L2644.12 1402.63C2644.12 1403.13 2644.52 1403.63 2645.12 1403.63L2664.42 1403.73C2664.92 1403.73 2665.42 1403.33 2665.42 1402.73L2665.62 1347.13ZM1781.62 1346.83C1781.62 1346.43 1781.32 1346.13 1780.92 1346.13H1737.42C1737.02 1346.13 1736.72 1346.43 1736.72 1346.83V1403.03C1736.72 1403.43 1737.02 1403.73 1737.42 1403.73H1780.92C1781.32 1403.73 1781.62 1403.43 1781.62 1403.03V1346.83ZM2626.12 1403.83C2626.72 1403.83 2627.02 1403.53 2627.02 1402.93V1348.83C2627.02 1347.63 2626.12 1346.63 2624.92 1346.53C2620.52 1346.13 2616.02 1345.83 2611.52 1345.83C2564.62 1345.43 2518.52 1345.43 2473.02 1345.83C2472.62 1345.83 2472.22 1346.13 2472.22 1346.63L2472.42 1402.53C2472.42 1403.43 2472.82 1403.83 2473.72 1403.83H2626.12ZM1883.82 1346.83C1883.82 1346.23 1883.32 1345.73 1882.72 1345.73H1798.92C1798.32 1345.73 1797.82 1346.23 1797.82 1346.83V1402.83C1797.82 1403.43 1798.32 1403.93 1798.92 1403.93H1882.72C1883.32 1403.93 1883.82 1403.43 1883.82 1402.83V1346.83ZM1883.82 1301.03C1883.82 1300.43 1883.32 1300.03 1882.82 1300.03L1797.82 1299.93C1797.22 1299.93 1796.82 1300.43 1796.82 1300.93V1322.53C1796.82 1323.13 1797.32 1323.53 1797.82 1323.53L1882.82 1323.63C1883.42 1323.63 1883.82 1323.13 1883.82 1322.63V1301.03ZM2613.62 1323.53C2614.12 1323.53 2614.62 1323.03 2614.42 1322.53L2610.22 1299.03C2610.12 1298.63 2609.82 1298.33 2609.32 1298.33L2472.92 1298.43C2472.42 1298.43 2472.02 1298.83 2472.02 1299.33V1322.83C2472.02 1323.33 2472.42 1323.73 2472.92 1323.73L2613.62 1323.53ZM2649.92 1296.53C2648.82 1296.93 2648.32 1297.83 2648.52 1299.03L2652.02 1322.23C2652.12 1323.03 2652.62 1323.53 2653.52 1323.53L2666.72 1323.63C2667.52 1323.63 2668.02 1323.23 2667.92 1322.33L2667.32 1284.43C2667.32 1282.63 2666.82 1282.53 2665.82 1284.03C2661.82 1289.83 2656.52 1293.93 2649.92 1296.53ZM1770.52 1299.43C1759.32 1292.63 1748.52 1286.03 1738.22 1279.43C1737.42 1278.93 1736.22 1279.53 1736.22 1280.53L1736.02 1321.83C1736.02 1323.03 1736.62 1323.53 1737.72 1323.63L1779.82 1324.33C1781.62 1324.33 1782.52 1323.43 1782.52 1321.63L1782.42 1305.63C1782.42 1304.13 1781.62 1303.23 1780.12 1303.03C1777.12 1302.73 1773.92 1301.53 1770.52 1299.43ZM2638.42 1265.33C2636.92 1265.33 2635.92 1266.73 2636.42 1268.13L2639.92 1278.53C2640.42 1280.03 2642.22 1280.43 2643.42 1279.43L2654.72 1268.83C2656.12 1267.53 2655.22 1265.13 2653.22 1265.13L2638.42 1265.33ZM2604.92 1281.83C2605.52 1281.83 2605.92 1281.33 2605.72 1280.83L2602.72 1265.43C2602.62 1265.03 2602.32 1264.73 2601.92 1264.73L2472.42 1264.93C2471.92 1264.93 2471.52 1265.33 2471.52 1265.83L2471.82 1281.23C2471.82 1281.73 2472.22 1282.03 2472.72 1282.03L2604.92 1281.83ZM1748.42 1264.63C1747.62 1264.63 1747.32 1265.73 1748.02 1266.13L1780.32 1284.53C1780.42 1284.63 1780.62 1284.63 1780.72 1284.63L1882.82 1284.43C1883.22 1284.43 1883.62 1284.03 1883.62 1283.63L1883.82 1265.53C1883.82 1265.13 1883.42 1264.73 1883.02 1264.73L1748.42 1264.63ZM2597.82 1243.73L2570.12 1101.13C2569.92 1100.13 2569.32 1099.73 2568.32 1100.03L2565.72 1100.83C2565.02 1101.03 2564.22 1101.13 2563.42 1101.13C2535.42 1101.63 2505.62 1101.83 2474.22 1101.83C2473.22 1101.83 2472.72 1102.33 2472.72 1103.33L2472.12 1244.23C2472.12 1245.13 2472.52 1245.63 2473.42 1245.63L2596.32 1245.53C2597.62 1245.53 2598.12 1244.93 2597.82 1243.73ZM1764.42 972.229C1763.92 971.729 1763.02 972.129 1763.02 972.829L1763.12 1003.13C1763.12 1003.53 1763.52 1003.93 1763.92 1003.93L1787.42 1004.23C1787.92 1004.23 1788.32 1003.73 1788.22 1003.23L1786.22 992.829C1786.22 992.629 1786.12 992.529 1786.02 992.429L1764.42 972.229ZM2583.52 981.929C2583.32 982.129 2583.22 982.429 2583.22 982.729L2585.52 1000.73C2585.62 1001.23 2585.92 1001.53 2586.42 1001.53L2597.02 1001.93C2597.52 1001.93 2597.92 1001.53 2597.92 1001.03L2598.22 969.429C2598.22 968.629 2597.22 968.229 2596.72 968.829L2583.52 981.929ZM2498.12 950.629C2498.12 950.029 2497.62 949.529 2497.02 949.529L2460.12 949.629C2459.52 949.629 2459.02 950.129 2459.02 950.729L2459.22 1000.33C2459.22 1000.93 2459.72 1001.43 2460.32 1001.43L2497.22 1001.33C2497.82 1001.33 2498.32 1000.83 2498.32 1000.23L2498.12 950.629ZM2513.22 999.829C2513.22 1000.63 2513.82 1001.33 2514.72 1001.33L2544.12 1001.53C2545.02 1001.53 2545.72 1000.73 2545.52 999.829L2537.32 950.329C2537.22 949.629 2536.62 949.129 2535.82 949.129H2514.62C2513.82 949.129 2513.12 949.829 2513.12 950.629V999.829M1802.32 984.729C1802.32 985.129 1802.42 985.429 1802.72 985.729L1821.52 1004.23C1821.72 1004.43 1822.12 1004.63 1822.42 1004.63L1902.62 1004.73C1903.32 1004.73 1903.92 1004.13 1903.92 1003.43L1904.12 950.629C1904.12 949.929 1903.52 949.329 1902.82 949.329L1803.82 949.129C1803.12 949.129 1802.52 949.729 1802.52 950.429L1802.32 984.729ZM1783.92 948.629L1767.32 948.329C1766.32 948.329 1765.82 949.529 1766.52 950.229L1784.92 969.029C1785.92 970.129 1786.52 969.829 1786.42 968.429L1786.22 951.029C1786.22 949.429 1785.42 948.729 1783.92 948.629ZM2577.52 962.129C2577.62 963.229 2578.92 963.629 2579.62 962.829L2590.62 950.029C2591.32 949.329 2590.72 948.129 2589.72 948.029L2577.92 947.829C2577.22 947.829 2576.72 948.429 2576.72 949.029L2577.52 962.129ZM1784.12 926.829C1784.92 926.929 1785.32 925.929 1784.82 925.329L1764.32 902.529C1763.72 901.929 1762.72 902.329 1762.72 903.129L1762.62 925.029C1762.62 925.529 1763.02 925.929 1763.52 925.929L1784.12 926.829ZM2597.32 899.129C2591.12 907.829 2584.42 915.929 2577.02 923.329C2575.32 925.029 2575.72 925.929 2578.12 926.029L2597.62 926.529C2598.42 926.529 2598.82 926.129 2598.82 925.329L2598.22 899.429C2598.32 898.229 2598.02 898.129 2597.32 899.129ZM2568.42 907.029C2568.62 908.229 2570.12 908.629 2570.82 907.629L2590.82 881.629C2591.52 880.729 2590.82 879.429 2589.72 879.429L2565.42 880.029C2564.62 880.029 2563.92 880.829 2564.12 881.629L2568.42 907.029ZM2533.32 926.129C2534.32 926.129 2535.02 925.329 2534.82 924.329L2526.62 880.929C2526.52 880.229 2525.82 879.729 2525.12 879.729L2460.12 879.629C2459.32 879.629 2458.62 880.329 2458.62 881.129L2458.82 924.929C2458.82 925.729 2459.52 926.429 2460.32 926.429L2533.32 926.129ZM1801.72 921.929C1801.92 924.629 1803.42 926.029 1806.22 926.029C1838.82 926.629 1870.82 926.729 1902.42 926.529C1903.42 926.529 1903.82 926.029 1903.82 925.029V880.329C1903.82 879.429 1903.42 879.029 1902.52 879.029H1766.82C1766.02 879.029 1765.92 879.329 1766.42 879.829L1800.22 918.229C1801.12 919.229 1801.62 920.429 1801.72 921.929ZM2422.62 785.229C2422.62 784.829 2422.32 784.529 2421.92 784.529H2339.12C2338.72 784.529 2338.42 784.829 2338.42 785.229V865.729C2338.42 866.129 2338.72 866.429 2339.12 866.429H2421.92C2422.32 866.429 2422.62 866.129 2422.62 865.729V785.229ZM2324.62 785.329C2324.62 784.829 2324.22 784.329 2323.62 784.329H2236.32C2235.82 784.329 2235.32 784.729 2235.32 785.329V865.629C2235.32 866.129 2235.82 866.629 2236.32 866.629H2323.62C2324.12 866.629 2324.62 866.229 2324.62 865.629V785.329ZM2222.42 785.129C2222.42 784.629 2222.02 784.229 2221.52 784.229L2138.02 784.329C2137.52 784.329 2137.12 784.729 2137.12 785.229L2137.22 865.629C2137.22 866.129 2137.62 866.529 2138.12 866.529L2221.62 866.429C2222.12 866.429 2222.52 866.029 2222.52 865.529L2222.42 785.129ZM2123.42 785.229C2123.42 784.729 2123.02 784.329 2122.52 784.329H2037.22C2036.72 784.329 2036.32 784.729 2036.32 785.229V865.729C2036.32 866.229 2036.72 866.629 2037.22 866.629H2122.52C2123.02 866.629 2123.42 866.229 2123.42 865.729V785.229ZM1936.12 784.229C1935.72 784.229 1935.32 784.529 1935.32 785.029L1935.02 865.329C1935.02 865.729 1935.32 866.129 1935.82 866.129H2021.92C2022.32 866.129 2022.72 865.829 2022.72 865.329L2023.42 785.329C2023.42 784.929 2023.02 784.529 2022.62 784.529L1936.12 784.229ZM2687.12 1323.33L2714.42 1323.73C2715.22 1323.73 2715.62 1324.13 2715.62 1324.93L2715.72 1344.23C2715.72 1345.23 2715.22 1345.73 2714.22 1345.73L2685.72 1345.93C2685.02 1345.93 2684.72 1346.23 2684.72 1346.93V1401.23C2684.72 1402.23 2685.12 1402.83 2686.02 1403.33C2686.22 1403.43 2686.52 1403.63 2686.72 1403.73C2687.52 1404.23 2687.92 1405.03 2688.02 1405.93C2688.12 1409.63 2688.22 1413.43 2688.12 1417.13C2688.02 1422.23 2689.52 1425.73 2685.42 1429.93C2680.52 1435.03 2675.72 1439.83 2670.82 1444.23C2666.02 1448.53 2669.12 1455.83 2668.62 1461.63C2668.52 1462.53 2668.12 1463.23 2667.42 1463.63L2630.02 1487.13C2628.52 1488.13 2626.82 1488.63 2625.02 1488.63L2486.22 1488.53C2485.72 1488.53 2485.32 1489.03 2485.42 1489.53L2621.92 2296.43C2622.32 2298.93 2623.82 2300.23 2626.22 2300.33C2652.72 2302.23 2676.92 2304.43 2698.82 2307.03C2741.72 2312.13 2784.92 2323.63 2828.62 2341.43C2898.22 2369.93 2969.42 2390.03 3045.12 2395.03C3082.12 2397.43 3120.02 2398.03 3155.12 2402.13C3177.12 2404.73 3201.12 2409.03 3227.32 2415.23C3239.12 2417.93 3250.02 2421.53 3260.02 2425.83C3278.72 2433.93 3284.72 2451.13 3287.92 2469.53C3288.12 2470.83 3287.62 2471.43 3286.32 2471.43L1067.12 2471.33C1066.32 2471.33 1065.92 2470.93 1066.02 2470.13C1067.62 2453.33 1071.92 2436.43 1088.62 2428.93C1101.92 2423.03 1115.12 2416.93 1128.22 2410.73C1151.92 2399.53 1174.62 2393.83 1199.32 2390.13C1232.62 2385.03 1257.92 2370.93 1286.52 2353.73C1316.42 2335.63 1347.92 2328.73 1380.82 2333.03C1417.72 2337.83 1452.32 2341.53 1484.62 2343.93C1510.22 2345.93 1535.22 2340.63 1558.62 2330.63C1573.52 2324.33 1588.22 2318.43 1602.82 2313.13C1635.42 2301.23 1667.62 2299.83 1700.62 2309.03C1716.72 2313.53 1733.52 2317.73 1750.22 2318.23C1751.12 2318.23 1751.82 2317.63 1752.02 2316.73L1887.72 1488.93C1887.82 1488.53 1887.52 1488.23 1887.12 1488.23L1793.52 1488.33C1790.02 1488.33 1786.62 1487.53 1783.62 1485.83L1745.02 1465.33C1743.82 1464.63 1743.12 1463.63 1743.22 1462.23L1743.52 1449.23C1743.52 1447.83 1742.82 1446.53 1741.52 1445.93L1710.12 1430.33C1709.02 1429.83 1708.52 1428.93 1708.52 1427.73L1708.42 1404.63C1708.42 1403.33 1709.82 1402.53 1710.92 1403.13C1712.12 1403.83 1713.32 1403.93 1714.42 1403.53C1715.32 1403.23 1715.82 1402.53 1715.82 1401.53V1347.53C1715.82 1346.03 1714.22 1345.03 1712.82 1345.63C1711.12 1346.43 1709.52 1346.63 1708.02 1346.23C1706.92 1345.93 1706.32 1345.23 1706.32 1344.13L1706.22 1325.33C1706.22 1324.43 1706.72 1324.03 1707.62 1324.03L1713.92 1324.33C1715.12 1324.43 1715.72 1323.83 1715.72 1322.63L1716.02 1267.53C1716.02 1266.53 1715.52 1265.83 1714.52 1265.53L1708.02 1263.83C1707.02 1263.53 1706.32 1262.63 1706.32 1261.63L1705.82 1247.63C1705.82 1246.53 1706.32 1246.03 1707.32 1246.03L1881.72 1245.43C1882.82 1245.43 1883.42 1244.83 1883.32 1243.73C1882.32 1196.83 1882.02 1151.53 1882.12 1107.73C1882.12 1107.03 1881.62 1106.53 1880.92 1106.53L1812.22 1106.73C1808.82 1106.73 1805.72 1105.83 1802.92 1103.83L1760.92 1074.93C1759.92 1074.23 1759.22 1073.03 1759.22 1071.73L1759.32 1058.33C1759.32 1056.33 1758.52 1054.43 1757.02 1053.13C1751.62 1048.33 1746.42 1043.43 1741.32 1038.73C1738.52 1036.13 1736.32 1033.23 1736.42 1029.23C1736.62 1021.63 1736.62 1014.03 1736.52 1006.43C1736.52 1005.53 1736.82 1004.93 1737.52 1004.43C1738.62 1003.73 1740.02 1003.63 1741.52 1004.23C1744.32 1005.33 1745.72 1004.33 1745.72 1001.33L1745.82 950.629C1745.82 949.429 1745.22 948.929 1744.12 948.929L1731.42 949.329C1728.92 949.429 1727.62 948.229 1727.62 945.729V929.729C1727.62 926.929 1729.02 925.829 1731.72 926.229C1735.72 926.829 1740.02 926.829 1744.82 926.229C1745.82 926.129 1746.32 925.529 1746.42 924.529C1747.52 910.329 1747.42 896.229 1746.12 882.229C1746.02 881.129 1745.12 880.129 1744.02 879.929C1737.72 878.629 1738.62 869.229 1739.22 864.429C1739.32 863.529 1739.82 863.129 1740.72 863.129L1902.02 863.029C1902.92 863.029 1903.32 862.529 1903.42 861.629L1903.72 764.329C1903.72 763.129 1903.12 762.629 1902.02 762.629L1862.92 762.729C1860.42 762.729 1858.02 761.429 1856.72 759.329L1792.12 657.329C1791.42 656.129 1791.52 655.129 1792.52 654.129C1793.22 653.529 1793.92 653.129 1794.82 652.829C1898.32 622.429 2005.62 591.329 2116.82 559.429C2122.82 557.729 2128.62 555.929 2134.22 554.129C2135.02 553.929 2135.32 553.329 2135.32 552.529L2134.92 537.329C2134.92 535.829 2136.12 534.529 2137.72 534.529L2147.02 534.629C2147.92 534.629 2148.42 534.129 2148.42 533.229L2148.32 501.029C2148.32 499.929 2147.42 499.129 2146.42 499.029C2135.62 498.629 2125.42 497.129 2115.72 494.429C2114.22 494.029 2113.92 492.029 2115.22 491.229C2131.82 480.829 2151.12 473.729 2169.02 465.429C2170.22 464.929 2171.52 464.829 2172.72 465.329C2187.12 471.529 2202.12 478.129 2217.62 485.229C2221.32 486.929 2224.92 489.029 2228.32 491.629C2229.02 492.129 2228.92 493.229 2228.02 493.529C2216.42 498.129 2205.12 498.929 2193.02 500.329C2192.02 500.429 2191.32 501.229 2191.32 502.229L2191.22 533.529C2191.22 534.329 2191.92 535.029 2192.72 535.029L2204.72 534.829C2206.22 534.829 2207.02 535.529 2207.02 537.029L2207.22 548.629C2207.22 549.629 2207.62 550.329 2208.62 550.729C2210.92 551.729 2213.32 552.629 2215.72 553.229C2326.72 583.829 2438.02 614.629 2549.72 645.429C2551.22 645.829 2552.12 647.529 2551.52 648.929L2509.72 759.129C2508.82 761.529 2507.02 762.729 2504.42 762.729L2459.12 762.829C2458.12 762.829 2457.72 763.329 2457.72 764.229L2457.92 862.429C2457.92 863.029 2458.42 863.529 2459.02 863.529L2522.22 862.929C2523.72 862.929 2524.42 862.129 2524.52 860.729L2524.62 856.929C2524.62 856.029 2525.12 855.629 2526.02 855.529L2557.72 854.829C2558.82 854.829 2559.42 855.329 2559.62 856.329C2559.92 857.529 2559.92 858.829 2559.62 860.029C2559.32 861.529 2560.42 862.829 2561.92 862.829L2619.52 863.129C2620.72 863.129 2621.32 863.729 2621.42 864.929L2622.02 874.829C2622.12 875.829 2621.62 876.329 2620.62 876.429L2615.82 876.729C2614.72 876.829 2613.82 877.729 2613.92 878.829L2614.82 924.329C2614.82 926.129 2615.72 926.829 2617.42 926.429C2620.92 925.629 2623.92 925.529 2626.42 926.029C2627.72 926.229 2628.32 927.029 2628.42 928.329L2629.02 945.329C2629.12 947.129 2628.22 948.029 2626.42 948.029L2615.92 948.129C2614.82 948.129 2613.92 949.029 2613.92 950.129L2614.62 1000.83C2614.62 1001.63 2615.02 1002.13 2615.92 1002.13L2624.62 1002.83C2625.92 1002.93 2626.62 1003.63 2626.62 1004.93V1024.63C2626.62 1025.73 2626.32 1026.73 2625.62 1027.53L2596.72 1065.03C2595.72 1066.33 2595.22 1068.13 2595.62 1069.73L2631.12 1243.23C2631.32 1244.23 2632.22 1244.93 2633.22 1244.93L2687.62 1244.63C2688.52 1244.63 2689.02 1245.03 2689.02 1245.93L2689.92 1261.33C2690.02 1262.53 2689.42 1263.23 2688.22 1263.43L2686.32 1263.73C2685.32 1263.93 2684.82 1264.43 2684.82 1265.53L2685.22 1321.53C2685.62 1322.83 2686.12 1323.33 2687.12 1323.33Z" fill="#0A0A0A"/>
<g filter="url(#filter0_f_76_5025)">
<path d="M4.5 424.48L1915.5 830L377.5 983.5L4.5 1012.98V424.48Z" fill="url(#paint0_linear_76_5025)"/>
</g>
<rect x="1935" y="784" width="89" height="82" fill="#D5254B"/>
<rect x="2035" y="784" width="89" height="82" fill="#D5254B"/>
<rect x="2135" y="784" width="89" height="82" fill="#D5254B"/>
<rect x="2235" y="784" width="89" height="82" fill="#D5254B"/>
<rect x="2335" y="784" width="89" height="82" fill="#D5254B"/>
<path d="M2959.98 683.006C2965.65 683.344 3004.98 689.766 3024.32 694.497C3043.65 699.229 3063.66 726.268 3068.32 727.282C3072.99 728.296 3095.33 725.592 3114.66 724.24C3134 722.55 3171 744.181 3171 744.181C3171 752.293 3133.66 739.787 3120.33 739.112C3107.33 738.436 3086.66 742.491 3082.32 746.209C3077.99 749.589 3069.99 754.321 3062.99 753.983C3055.99 753.645 3036.32 739.449 3034.32 736.746C3032.32 734.042 3042.32 732.69 3042.32 732.69C3042.32 732.69 3042.32 732.69 3032.99 720.86C3023.65 709.031 3003.32 703.623 2989.65 700.243C2976.98 696.863 2953.98 682.668 2959.98 683.006Z" fill="black"/>
<path d="M2617.22 48.3063C2612.03 39.3531 2607.3 35.7719 2595.35 28.1616C2591.52 25.6995 2587.46 23.0135 2583.17 20.3276C2584.98 18.5369 2586.56 16.7463 2587.01 15.1795C2588.81 10.4791 2581.82 8.01693 2571.45 13.165C2566.04 10.0314 2561.08 7.12161 2557.47 5.33097C2548.23 0.630538 2545.52 -1.60776 2519.82 1.30203C2493.89 4.21182 2486 2.64501 2486 2.64501C2498.85 10.9267 2517.34 7.7931 2534.92 7.7931C2549.35 7.7931 2555.67 12.9412 2564.01 18.7608C2561.75 21.8944 2561.98 24.1327 2557.92 25.028C2548 27.2663 2555.67 34.205 2559.05 30.8476C2563.11 26.8187 2563.56 28.3855 2569.87 27.4901C2571.45 27.2663 2573.25 26.5948 2575.28 25.6995C2588.13 32.8621 2607.75 42.7106 2612.48 55.6927C2620.15 76.5089 2626.69 83 2633 83C2621.05 74.2706 2622.4 57.0357 2617.22 48.3063Z" fill="black"/>
<path d="M2803.31 465.008C2798.49 465.357 2766.84 470.25 2751.36 474.095C2735.87 477.94 2719.7 499.609 2715.92 500.658C2712.13 501.706 2694.24 499.26 2678.76 498.211C2662.93 496.813 2633 514.289 2633 514.289C2633 520.929 2663.28 510.793 2673.6 510.094C2684.26 509.395 2700.78 512.891 2704.22 515.687C2707.66 518.483 2714.2 522.327 2719.7 521.978C2725.21 521.628 2741.03 510.444 2742.75 507.997C2744.47 505.9 2736.22 504.852 2736.22 504.852C2736.22 504.852 2736.22 504.852 2743.79 495.415C2751.36 485.978 2767.87 481.435 2778.54 478.639C2789.55 476.192 2807.78 464.658 2803.31 465.008Z" fill="black"/>
<defs>
<filter id="filter0_f_76_5025" x="0.5" y="420.48" width="1919" height="596.5" filterUnits="userSpaceOnUse" color-interpolation-filters="sRGB">
<feFlood flood-opacity="0" result="BackgroundImageFix"/>
<feBlend mode="normal" in="SourceGraphic" in2="BackgroundImageFix" result="shape"/>
<feGaussianBlur stdDeviation="2" result="effect1_foregroundBlur_76_5025"/>
</filter>
<linearGradient id="paint0_linear_76_5025" x1="230" y1="902" x2="1956.5" y2="694" gradientUnits="userSpaceOnUse">
<stop stop-color="#7B1027" stop-opacity="0"/>
<stop offset="0.405" stop-color="#BA183B" stop-opacity="0.616282"/>
<stop offset="1" stop-color="#E11D47"/>
</linearGradient>
</defs>
</svg>
