<svg width="2830" height="2830" viewBox="0 0 2830 2830" fill="none" xmlns="http://www.w3.org/2000/svg">
<circle cx="1415" cy="1415" r="1415" fill="#E11D47"/>
<path d="M580 2153.54C611.626 2144.75 643.252 2137.72 674.878 2128.94C710.017 2120.15 743.4 2111.37 778.54 2104.34C785.568 2102.58 790.839 2099.07 792.596 2092.04C822.465 2002.43 854.091 1914.59 883.96 1824.98C908.558 1752.94 933.155 1682.66 957.753 1610.63C959.51 1605.35 961.267 1600.08 963.024 1594.81C912.072 1589.54 861.119 1584.27 810.166 1580.76C810.166 1531.56 810.166 1482.37 810.166 1433.17C792.596 1431.41 797.867 1420.87 797.867 1408.57C822.465 1408.57 847.063 1408.57 869.904 1408.57C876.932 1408.57 883.96 1413.84 892.745 1403.3C898.016 1398.03 913.829 1399.79 924.371 1399.79C924.371 1405.06 926.128 1408.57 926.128 1412.09C938.426 1413.84 948.968 1413.84 961.267 1415.6C961.267 1408.57 963.024 1401.54 963.024 1394.52C973.566 1394.52 984.108 1392.76 996.407 1392.76C996.407 1401.54 996.407 1408.57 996.407 1417.36C1010.46 1419.11 1022.76 1420.87 1036.82 1420.87C1036.82 1408.57 1036.82 1398.03 1036.82 1385.73C1049.12 1385.73 1059.66 1383.97 1068.44 1383.97L1070.2 1385.73C1071.96 1401.54 1071.96 1419.11 1073.71 1434.93C1075.47 1454.25 1070.2 1475.34 1068.44 1494.66C1068.44 1498.18 1068.44 1501.69 1068.44 1505.21C1070.2 1505.21 1070.2 1506.96 1071.96 1506.96C1084.26 1505.21 1100.07 1508.72 1105.34 1503.45C1112.37 1498.18 1108.85 1482.37 1108.85 1470.07C1117.64 1470.07 1128.18 1468.31 1138.72 1466.55C1138.72 1473.58 1138.72 1478.85 1138.72 1485.88C1138.72 1491.15 1138.72 1498.18 1138.72 1505.21C1145.75 1505.21 1151.02 1505.21 1158.05 1505.21C1158.05 1498.18 1158.05 1492.91 1158.05 1485.88C1158.05 1480.61 1158.05 1473.58 1158.05 1466.55C1203.73 1464.8 1247.66 1461.28 1293.34 1459.52C1293.34 1475.34 1293.34 1489.39 1293.34 1503.45C1300.37 1503.45 1307.39 1503.45 1314.42 1503.45C1314.42 1489.39 1314.42 1475.34 1314.42 1459.52C1365.38 1456.01 1414.57 1454.25 1465.52 1450.74C1465.52 1464.8 1465.52 1480.61 1465.52 1494.66C1472.55 1494.66 1477.82 1494.66 1484.85 1494.66C1484.85 1480.61 1484.85 1466.55 1484.85 1452.5C1493.64 1450.74 1505.94 1452.5 1509.45 1447.23C1512.96 1441.95 1511.21 1431.41 1511.21 1420.87C1502.42 1420.87 1493.64 1420.87 1484.85 1420.87C1484.85 1399.79 1484.85 1380.46 1484.85 1361.13C1491.88 1359.38 1500.66 1359.38 1509.45 1357.62C1509.45 1348.83 1509.45 1340.05 1509.45 1329.51C1500.66 1329.51 1493.64 1329.51 1484.85 1329.51C1484.85 1310.18 1484.85 1292.61 1484.85 1275.04C1491.88 1273.28 1500.66 1273.28 1509.45 1271.53C1509.45 1262.74 1509.45 1253.96 1509.45 1243.41C1393.49 1252.2 1275.77 1259.23 1161.56 1268.01C1143.99 1211.79 1128.18 1155.56 1112.37 1099.34C1108.85 1088.8 1105.34 1078.26 1103.58 1067.71C1101.83 1055.42 1094.8 1051.9 1082.5 1050.14C1019.25 1041.36 955.996 1032.58 890.988 1022.03C890.988 1015.01 890.988 1007.98 890.988 1000.95C890.988 999.192 894.502 995.678 896.259 993.921C1015.73 935.94 1135.21 879.717 1252.93 821.736C1298.61 800.652 1342.53 777.811 1388.22 754.97C1397 749.699 1400.52 746.185 1400.52 733.886C1400.52 682.934 1400.52 633.738 1400.52 582.785C1400.52 579.271 1400.52 577.514 1400.52 574C1407.54 574 1416.33 574 1425.11 574C1425.11 584.542 1425.11 596.841 1425.11 609.14C1462.01 602.112 1497.15 623.196 1532.29 607.383C1532.29 631.981 1532.29 656.579 1532.29 679.42C1509.45 684.691 1488.37 689.962 1465.52 682.934C1454.98 679.42 1444.44 681.177 1433.9 682.934C1430.38 682.934 1426.87 688.205 1426.87 691.718C1426.87 709.288 1425.11 726.858 1426.87 744.428C1426.87 747.942 1432.14 753.213 1435.66 754.97C1470.8 772.54 1505.94 791.867 1542.83 809.437C1658.79 865.661 1773 921.885 1888.96 978.108C1899.5 983.379 1908.29 988.65 1918.83 992.164C1927.61 995.678 1931.13 1000.95 1929.37 1009.73C1929.37 1013.25 1929.37 1018.52 1929.37 1022.03C1901.26 1025.55 1874.9 1029.06 1848.55 1032.58C1806.38 1037.85 1764.21 1043.12 1723.8 1048.39C1720.29 1048.39 1716.77 1051.9 1715.02 1055.42C1697.45 1109.88 1681.63 1166.11 1665.82 1222.33C1665.82 1224.09 1665.82 1225.84 1665.82 1227.6C1660.55 1250.44 1662.31 1253.96 1685.15 1257.47C1783.54 1273.28 1880.17 1287.34 1978.57 1303.15C1982.08 1303.15 1985.59 1304.91 1989.11 1304.91C1989.11 1315.45 1989.11 1325.99 1989.11 1336.53C1973.3 1334.78 1973.3 1343.56 1975.05 1354.1C1975.05 1366.4 1975.05 1380.46 1975.05 1392.76C1975.05 1405.06 1975.05 1405.06 1987.35 1408.57C1987.35 1417.36 1987.35 1426.14 1987.35 1436.68C1983.84 1436.68 1980.32 1438.44 1975.05 1438.44C1975.05 1487.64 1975.05 1535.07 1975.05 1584.27C1918.83 1589.54 1864.36 1594.81 1808.14 1598.33C1811.65 1608.87 1813.41 1617.65 1816.92 1628.2C1822.19 1647.52 1829.22 1666.85 1834.49 1686.18C1838.01 1696.72 1841.52 1698.48 1852.06 1698.48C1873.15 1698.48 1895.99 1698.48 1917.07 1698.48C1936.4 1698.48 1936.4 1698.48 1938.16 1719.56C1906.53 1719.56 1876.66 1719.56 1843.28 1719.56C1850.31 1742.4 1857.33 1763.48 1862.6 1784.57C1887.2 1784.57 1911.8 1784.57 1936.4 1784.57C1936.4 1779.3 1934.64 1775.78 1934.64 1770.51C1945.18 1767 1957.48 1765.24 1968.02 1761.73C1971.54 1772.27 1973.3 1781.05 1976.81 1789.84C2008.43 1895.26 2040.06 1998.92 2071.69 2104.34C2073.44 2111.37 2078.71 2113.13 2085.74 2114.88C2134.94 2127.18 2184.13 2139.48 2233.33 2151.78C2238.6 2153.54 2245.63 2155.29 2250.9 2158.81C1693.93 2155.29 1136.97 2155.29 580 2155.29C580 2155.29 580 2155.29 580 2153.54ZM1240.63 1833.76C1238.87 1833.76 1237.12 1833.76 1237.12 1835.52C1158.05 1882.96 1078.99 1928.64 999.921 1976.08C996.407 1977.84 994.65 1981.35 992.893 1984.87C982.351 2016.49 971.809 2048.12 959.51 2081.5C1054.39 2081.5 1145.75 2081.5 1240.63 2081.5C1240.63 1997.16 1240.63 1914.59 1240.63 1833.76ZM1841.52 2079.74C1841.52 2077.99 1841.52 2076.23 1841.52 2074.47C1832.74 2044.6 1822.19 2012.98 1813.41 1983.11C1811.65 1979.59 1808.14 1976.08 1804.62 1972.57C1741.37 1935.67 1679.88 1898.77 1616.63 1861.88C1600.81 1853.09 1583.24 1842.55 1567.43 1833.76C1567.43 1916.34 1567.43 1997.16 1567.43 2079.74C1657.04 2079.74 1748.4 2079.74 1841.52 2079.74ZM1142.24 1053.66C1156.29 1101.1 1170.35 1148.54 1184.41 1194.22C1186.16 1203 1191.43 1206.52 1200.22 1204.76C1258.2 1199.49 1314.42 1192.46 1372.4 1187.19C1388.22 1185.43 1404.03 1183.68 1419.84 1183.68C1419.84 1129.21 1419.84 1074.74 1419.84 1020.28C1326.72 1030.82 1235.36 1041.36 1142.24 1053.66ZM1502.42 2079.74C1502.42 2056.9 1502.42 2034.06 1502.42 2011.22C1502.42 2007.71 1498.91 2005.95 1497.15 2004.19C1467.28 1981.35 1439.17 1956.75 1409.3 1933.91C1407.54 1932.16 1400.52 1932.16 1398.76 1933.91C1368.89 1956.75 1339.02 1981.35 1309.15 2004.19C1305.64 2005.95 1302.12 2009.46 1302.12 2012.98C1302.12 2035.82 1302.12 2056.9 1302.12 2079.74C1368.89 2079.74 1435.66 2079.74 1502.42 2079.74ZM1469.04 1772.27C1476.07 1772.27 1481.34 1772.27 1486.61 1772.27C1484.85 1770.51 1484.85 1768.75 1484.85 1768.75C1458.5 1752.94 1433.9 1735.37 1407.54 1719.56C1404.03 1717.8 1398.76 1719.56 1395.24 1721.32C1372.4 1735.37 1349.56 1749.43 1324.96 1765.24C1323.21 1767 1319.69 1768.75 1316.18 1772.27C1323.21 1772.27 1328.48 1774.03 1333.75 1774.03C1333.75 1788.08 1333.75 1802.14 1333.75 1816.19C1333.75 1819.71 1333.75 1824.98 1337.26 1826.74C1358.35 1844.31 1381.19 1861.88 1402.27 1877.69C1421.6 1861.88 1440.93 1847.82 1460.25 1832.01C1465.52 1828.49 1469.04 1823.22 1469.04 1816.19C1469.04 1802.14 1469.04 1788.08 1469.04 1772.27ZM1569.19 1044.87C1569.19 1099.34 1569.19 1150.29 1569.19 1201.25C1586.76 1204.76 1602.57 1206.52 1618.38 1210.03C1627.17 1211.79 1628.92 1208.27 1632.44 1201.25C1639.47 1176.65 1646.49 1152.05 1653.52 1127.45C1660.55 1106.37 1665.82 1085.28 1671.09 1064.2C1637.71 1058.93 1604.33 1051.9 1569.19 1044.87ZM1470.8 1187.19C1493.64 1190.7 1516.48 1194.22 1539.32 1197.73C1539.32 1145.02 1539.32 1092.31 1539.32 1039.6C1516.48 1034.33 1493.64 1030.82 1470.8 1025.55C1470.8 1080.01 1470.8 1132.72 1470.8 1187.19ZM1744.89 1601.84C1746.64 1608.87 1748.4 1612.38 1750.16 1617.65C1795.84 1767 1843.28 1914.59 1888.96 2063.93C1894.23 2081.5 1894.23 2081.5 1913.56 2077.99C1864.36 1918.1 1815.17 1759.97 1767.73 1600.08C1758.94 1601.84 1751.91 1601.84 1744.89 1601.84ZM1172.11 1691.45C1196.7 1663.34 1219.55 1633.47 1244.14 1603.6C1203.73 1603.6 1166.84 1603.6 1131.7 1603.6C1112.37 1603.6 1112.37 1603.6 1105.34 1622.92C1101.83 1631.71 1103.58 1635.22 1110.61 1640.49C1129.94 1656.31 1149.27 1672.12 1172.11 1691.45ZM1560.4 1601.84C1585 1631.71 1609.6 1659.82 1632.44 1689.69C1653.52 1672.12 1674.61 1656.31 1693.93 1640.49C1695.69 1638.74 1699.2 1633.47 1699.2 1631.71C1697.45 1622.92 1693.93 1614.14 1690.42 1607.11C1690.42 1605.35 1685.15 1603.6 1683.39 1603.6C1642.98 1601.84 1604.33 1601.84 1560.4 1601.84ZM1773 1851.33C1753.67 1791.6 1734.34 1735.37 1716.77 1677.39C1697.45 1693.2 1679.88 1707.26 1660.55 1721.32C1697.45 1763.48 1734.34 1805.65 1773 1851.33ZM1028.03 1851.33C1028.03 1851.33 1029.79 1851.33 1029.79 1853.09C1066.69 1809.17 1105.34 1765.24 1143.99 1721.32C1124.67 1707.26 1107.1 1691.45 1086.01 1675.63C1086.01 1700.23 1086.01 1719.56 1086.01 1740.64C1077.23 1740.64 1070.2 1740.64 1063.17 1738.89C1050.87 1777.54 1038.58 1814.44 1028.03 1851.33ZM1490.12 1603.6C1430.38 1603.6 1372.4 1603.6 1312.67 1603.6C1344.29 1624.68 1372.4 1644.01 1402.27 1663.34C1430.38 1644.01 1458.5 1624.68 1490.12 1603.6ZM1962.75 1870.66C1955.73 1849.58 1950.45 1828.49 1943.43 1809.17C1943.43 1807.41 1939.91 1805.65 1938.16 1805.65C1915.31 1805.65 1892.47 1805.65 1867.88 1805.65C1874.9 1826.74 1880.17 1846.06 1887.2 1865.39C1887.2 1867.15 1892.47 1870.66 1894.23 1870.66C1917.07 1870.66 1939.91 1870.66 1962.75 1870.66ZM1895.99 1891.74C1903.02 1912.83 1908.29 1933.91 1915.31 1953.24C1915.31 1955 1918.83 1958.51 1920.59 1958.51C1943.43 1958.51 1964.51 1958.51 1989.11 1958.51C1982.08 1937.43 1976.81 1916.34 1969.78 1897.02C1969.78 1895.26 1964.51 1891.74 1962.75 1891.74C1941.67 1891.74 1920.59 1891.74 1895.99 1891.74ZM1924.1 1979.59C1931.13 2000.68 1938.16 2021.76 1943.43 2041.09C1943.43 2042.85 1946.94 2046.36 1948.7 2046.36C1969.78 2046.36 1992.62 2046.36 2015.46 2046.36C2008.43 2023.52 2003.16 2004.19 1996.14 1984.87C1996.14 1983.11 1990.86 1979.59 1989.11 1979.59C1968.02 1979.59 1946.94 1979.59 1924.1 1979.59ZM1175.62 1747.67C1140.48 1786.32 1107.1 1824.98 1073.71 1863.63C1073.71 1863.63 1073.71 1865.39 1075.47 1865.39C1122.91 1837.28 1170.35 1809.17 1217.79 1779.3C1203.73 1768.75 1191.43 1758.21 1175.62 1747.67ZM1585 1781.05C1632.44 1809.17 1679.88 1837.28 1725.56 1863.63C1725.56 1863.63 1725.56 1863.63 1727.32 1861.88C1693.93 1824.98 1660.55 1786.32 1627.17 1747.67C1613.11 1759.97 1600.81 1768.75 1585 1781.05ZM843.549 1522.78C859.362 1521.02 873.418 1521.02 889.231 1519.26C889.231 1491.15 889.231 1464.8 889.231 1436.68C873.418 1434.93 859.362 1433.17 843.549 1433.17C843.549 1464.8 843.549 1492.91 843.549 1522.78ZM1897.74 1441.95C1897.74 1468.31 1897.74 1494.66 1897.74 1521.02C1911.8 1522.78 1924.1 1524.53 1938.16 1524.53C1938.16 1494.66 1938.16 1466.55 1938.16 1436.68C1924.1 1440.2 1911.8 1440.2 1897.74 1441.95ZM1302.12 1851.33C1302.12 1886.47 1302.12 1919.86 1302.12 1955C1324.96 1937.43 1346.05 1919.86 1368.89 1904.04C1346.05 1884.72 1324.96 1868.9 1302.12 1851.33ZM1437.41 1902.29C1460.25 1919.86 1479.58 1935.67 1502.42 1953.24C1502.42 1919.86 1502.42 1888.23 1502.42 1853.09C1479.58 1868.9 1458.5 1884.72 1437.41 1902.29ZM998.164 1513.99C1012.22 1512.23 1026.28 1512.23 1040.33 1510.48C1040.33 1489.39 1040.33 1470.07 1040.33 1450.74C1026.28 1448.98 1012.22 1447.23 998.164 1447.23C998.164 1470.07 998.164 1491.15 998.164 1513.99ZM926.128 1517.51C938.426 1517.51 950.725 1515.75 963.024 1515.75C963.024 1491.15 963.024 1468.31 963.024 1445.47C950.725 1443.71 938.426 1443.71 926.128 1441.95C926.128 1466.55 926.128 1491.15 926.128 1517.51ZM1792.32 1508.72C1792.32 1487.64 1792.32 1468.31 1792.32 1447.23C1778.27 1448.98 1764.21 1448.98 1751.91 1450.74C1751.91 1468.31 1751.91 1485.88 1751.91 1503.45C1765.97 1506.96 1778.27 1506.96 1792.32 1508.72ZM1502.42 1726.59C1502.42 1700.23 1502.42 1675.63 1502.42 1647.52C1481.34 1661.58 1462.01 1673.88 1440.93 1687.93C1462.01 1701.99 1481.34 1714.29 1502.42 1726.59ZM834.764 2074.47C857.605 2074.47 878.689 2074.47 901.53 2074.47C903.287 2074.47 906.801 2072.71 906.801 2069.2C910.315 2060.42 913.829 2049.87 915.586 2039.33C892.745 2039.33 871.661 2039.33 850.577 2039.33C848.82 2039.33 845.306 2042.85 843.549 2044.6C841.792 2055.14 838.278 2063.93 834.764 2074.47ZM1300.37 1726.59C1321.45 1714.29 1340.78 1701.99 1360.1 1689.69C1339.02 1675.63 1319.69 1663.34 1300.37 1651.04C1300.37 1675.63 1300.37 1700.23 1300.37 1726.59ZM1897.74 1392.76C1911.8 1394.52 1925.86 1396.27 1939.91 1398.03C1939.91 1378.7 1939.91 1359.38 1939.91 1340.05C1925.86 1341.81 1911.8 1341.81 1897.74 1343.56C1897.74 1359.38 1897.74 1375.19 1897.74 1392.76ZM1829.22 1445.47C1829.22 1466.55 1829.22 1487.64 1829.22 1508.72C1829.22 1510.48 1832.74 1513.99 1834.49 1513.99C1843.28 1515.75 1850.31 1515.75 1859.09 1517.51C1859.09 1492.91 1859.09 1468.31 1859.09 1443.71C1850.31 1443.71 1839.76 1445.47 1829.22 1445.47ZM1667.58 1429.66C1681.63 1427.9 1695.69 1427.9 1709.75 1426.14C1711.5 1426.14 1713.26 1422.63 1713.26 1422.63C1713.26 1410.33 1713.26 1398.03 1713.26 1385.73C1695.69 1383.97 1681.63 1380.46 1665.82 1378.7C1667.58 1396.27 1667.58 1412.09 1667.58 1429.66ZM948.968 1742.4C971.809 1742.4 992.893 1742.4 1013.98 1742.4C1015.73 1742.4 1019.25 1740.64 1021.01 1738.89C1024.52 1730.1 1026.28 1721.32 1029.79 1712.53C1008.71 1712.53 987.622 1712.53 968.295 1712.53C964.781 1712.53 961.267 1714.29 959.51 1716.05C954.239 1724.83 952.482 1733.62 948.968 1742.4ZM915.586 1844.31C938.426 1844.31 959.51 1844.31 980.594 1844.31C982.351 1844.31 987.622 1842.55 987.622 1840.79C991.136 1832.01 992.893 1823.22 996.407 1814.44C973.566 1814.44 952.482 1814.44 933.156 1814.44C929.642 1814.44 926.128 1817.95 924.371 1819.71C920.857 1826.74 917.343 1835.52 915.586 1844.31ZM871.661 1969.05C894.502 1969.05 915.586 1969.05 936.669 1969.05C938.426 1969.05 941.94 1967.3 943.697 1965.54C947.211 1956.75 948.968 1947.97 952.482 1939.18C929.642 1939.18 908.558 1939.18 887.474 1939.18C885.717 1939.18 882.203 1942.7 880.446 1944.45C876.932 1951.48 875.175 1958.51 871.661 1969.05ZM968.295 1691.45C991.136 1691.45 1013.98 1691.45 1036.82 1691.45C1040.33 1680.91 1043.85 1672.12 1047.36 1659.82C1033.3 1659.82 1019.25 1659.82 1006.95 1659.82C977.08 1659.82 977.08 1659.82 970.052 1687.93C968.295 1689.69 968.295 1689.69 968.295 1691.45ZM931.399 1990.14C910.315 1990.14 890.988 1990.14 869.904 1990.14C868.147 1990.14 862.876 1991.89 862.876 1995.41C859.362 2004.19 857.605 2012.98 854.091 2023.52C868.147 2023.52 880.446 2023.52 894.502 2023.52C926.128 2023.52 926.128 2023.52 933.156 1993.65C933.156 1991.89 933.155 1991.89 931.399 1990.14ZM1667.58 1282.07C1667.58 1299.64 1667.58 1315.45 1667.58 1333.02C1683.39 1331.26 1699.2 1331.26 1715.02 1329.51C1715.02 1315.45 1715.02 1303.15 1715.02 1290.85C1697.45 1287.34 1683.39 1285.58 1667.58 1282.07ZM931.399 1793.35C954.239 1793.35 975.323 1793.35 996.407 1793.35C998.164 1793.35 1003.44 1789.84 1003.44 1788.08C1006.95 1781.05 1008.71 1772.27 1010.46 1763.48C987.622 1763.48 966.538 1763.48 945.454 1763.48C943.697 1763.48 940.183 1767 938.426 1768.75C936.669 1775.78 934.912 1784.57 931.399 1793.35ZM1751.91 1327.75C1790.57 1324.24 1825.71 1320.72 1862.6 1317.21C1862.6 1315.45 1862.6 1313.69 1862.6 1311.94C1825.71 1306.67 1788.81 1301.39 1751.91 1294.37C1751.91 1308.42 1751.91 1317.21 1751.91 1327.75ZM889.231 1916.34C910.315 1916.34 929.642 1916.34 950.725 1916.34C954.239 1916.34 957.753 1914.59 959.51 1912.83C963.024 1904.04 964.781 1897.02 968.295 1886.47C952.482 1886.47 940.183 1886.47 926.128 1886.47C898.016 1886.47 898.016 1886.47 889.231 1912.83C889.231 1914.59 889.231 1914.59 889.231 1916.34ZM1665.82 1492.91C1681.63 1494.66 1697.45 1496.42 1713.26 1499.94C1713.26 1484.12 1713.26 1468.31 1713.26 1454.25C1697.45 1456.01 1681.63 1457.77 1665.82 1457.77C1665.82 1470.07 1665.82 1480.61 1665.82 1492.91ZM1207.25 1716.05C1219.55 1726.59 1230.09 1735.37 1244.14 1744.16C1244.14 1721.32 1244.14 1700.23 1244.14 1677.39C1230.09 1691.45 1219.55 1701.99 1207.25 1716.05ZM1008.71 1564.94C1033.3 1564.94 1054.39 1564.94 1077.23 1564.94C1077.23 1557.92 1077.23 1552.64 1077.23 1545.62C1054.39 1547.37 1031.55 1547.37 1008.71 1549.13C1008.71 1556.16 1008.71 1559.67 1008.71 1564.94ZM1792.32 1420.87C1792.32 1415.6 1792.32 1410.33 1792.32 1405.06C1790.57 1401.54 1788.81 1396.27 1785.3 1396.27C1774.75 1394.52 1762.46 1392.76 1750.16 1391C1750.16 1401.54 1750.16 1412.09 1750.16 1422.63C1765.97 1422.63 1778.27 1422.63 1792.32 1420.87ZM1563.92 1744.16C1576.21 1735.37 1586.76 1726.59 1599.06 1717.8C1586.76 1705.5 1576.21 1693.2 1563.92 1679.15C1563.92 1701.99 1563.92 1721.32 1563.92 1744.16ZM1859.09 1345.32C1848.55 1347.08 1839.76 1347.08 1829.22 1348.83C1829.22 1359.38 1829.22 1368.16 1829.22 1375.19C1829.22 1376.95 1832.74 1380.46 1834.49 1382.22C1841.52 1383.97 1850.31 1383.97 1859.09 1385.73C1859.09 1371.67 1859.09 1359.38 1859.09 1345.32ZM2024.25 2079.74C2022.49 2067.44 2022.49 2067.44 2011.95 2067.44C2006.68 2067.44 2003.16 2067.44 1997.89 2067.44C1982.08 2067.44 1966.27 2067.44 1950.45 2067.44C1952.21 2072.71 1953.97 2076.23 1953.97 2079.74C1976.81 2079.74 2001.41 2079.74 2024.25 2079.74ZM1794.08 1375.19C1794.08 1366.4 1792.32 1359.38 1792.32 1352.35C1778.27 1354.1 1764.21 1354.1 1748.4 1355.86C1751.91 1362.89 1753.67 1369.92 1755.43 1369.92C1767.73 1371.67 1780.03 1371.67 1794.08 1375.19ZM985.865 1636.98C1006.95 1636.98 1026.28 1636.98 1047.36 1636.98C1033.3 1628.2 992.893 1628.2 985.865 1636.98ZM912.072 1863.63V1865.39C933.155 1865.39 955.996 1865.39 977.08 1865.39V1863.63C955.996 1863.63 933.155 1863.63 912.072 1863.63ZM1830.98 1405.06C1830.98 1410.33 1830.98 1413.84 1830.98 1417.36C1841.52 1415.6 1850.31 1415.6 1859.09 1413.84C1859.09 1412.09 1859.09 1410.33 1859.09 1408.57C1850.31 1406.81 1841.52 1406.81 1830.98 1405.06Z" fill="white"/>
<path d="M627.439 2186.92C1151.02 2181.64 1674.61 2181.64 2199.95 2188.67C2026.01 2199.21 1852.06 2208 1678.12 2209.76C1502.42 2211.51 1328.48 2211.51 1152.78 2209.76C978.837 2206.24 803.138 2199.21 629.196 2192.19C627.439 2190.43 627.439 2188.67 627.439 2186.92Z" fill="white"/>
<path d="M890.988 1376.95C890.988 1369.92 890.988 1362.89 890.988 1357.62C892.745 1345.32 887.474 1340.05 875.175 1340.05C864.633 1340.05 854.091 1338.3 843.549 1336.54C843.549 1352.35 843.549 1366.41 843.549 1380.46C833.007 1380.46 822.465 1382.22 810.166 1382.22C810.166 1371.68 810.166 1361.14 810.166 1350.59C810.166 1343.57 810.166 1336.54 799.624 1338.3C799.624 1331.27 799.624 1324.24 799.624 1317.21C817.194 1315.45 833.007 1315.45 850.577 1313.7C873.418 1311.94 894.502 1310.18 917.343 1308.43C922.614 1308.43 927.885 1304.91 929.642 1313.7C929.642 1313.7 931.399 1315.45 933.156 1315.45C943.697 1317.21 954.239 1317.21 964.781 1318.97C964.781 1313.7 966.538 1310.18 966.538 1306.67C977.08 1306.67 985.865 1306.67 996.407 1306.67C996.407 1310.18 998.164 1311.94 996.407 1315.45C996.407 1322.48 999.921 1324.24 1005.19 1326C1024.52 1327.75 1042.09 1331.27 1061.42 1333.02C1071.96 1333.02 1077.23 1336.54 1075.47 1348.84C1075.47 1352.35 1075.47 1355.87 1075.47 1361.14C1049.12 1369.92 1022.76 1352.35 996.407 1357.62C996.407 1361.14 996.407 1364.65 996.407 1369.92C985.865 1369.92 975.323 1371.68 964.781 1371.68C963.024 1364.65 963.024 1359.38 961.267 1350.59C948.968 1348.84 938.427 1348.84 924.371 1347.08C924.371 1355.87 924.371 1364.65 924.371 1375.19C913.829 1375.19 903.287 1375.19 890.988 1376.95Z" fill="white"/>
<path d="M1296.85 1341.81C1235.36 1345.32 1173.86 1348.84 1112.37 1354.11C1112.37 1334.78 1112.37 1317.21 1112.37 1297.88C1122.91 1297.88 1131.7 1296.13 1142.24 1296.13C1142.24 1311.94 1142.24 1325.99 1142.24 1340.05C1149.27 1340.05 1154.54 1340.05 1161.56 1340.05C1161.56 1325.99 1161.56 1311.94 1161.56 1296.13C1207.25 1292.61 1251.17 1290.85 1296.85 1287.34C1296.85 1304.91 1296.85 1322.48 1296.85 1341.81Z" fill="white"/>
<path d="M1319.69 1431.41C1319.69 1410.33 1319.69 1391 1319.69 1369.91C1368.89 1366.4 1418.09 1364.64 1469.04 1361.13C1469.04 1382.21 1469.04 1401.54 1469.04 1424.38C1419.84 1426.14 1370.65 1427.9 1319.69 1431.41Z" fill="white"/>
<path d="M1469.04 1333.02C1419.84 1336.53 1370.65 1338.29 1319.69 1341.8C1319.69 1322.48 1319.69 1304.91 1319.69 1285.58C1368.89 1282.07 1418.09 1278.55 1469.04 1275.04C1469.04 1294.37 1469.04 1311.94 1469.04 1333.02Z" fill="white"/>
<path d="M1704.48 2244.9C1509.45 2258.96 1312.67 2258.96 1117.64 2244.9C1312.67 2232.6 1507.69 2232.6 1704.48 2244.9Z" fill="white"/>
<path d="M1298.61 1431.42C1252.93 1433.17 1209 1436.69 1163.32 1438.44C1163.32 1417.36 1163.32 1398.03 1163.32 1376.95C1207.25 1373.44 1252.93 1371.68 1298.61 1368.16C1298.61 1391.01 1298.61 1412.09 1298.61 1431.42Z" fill="white"/>
<path d="M1142.24 1380.46C1142.24 1401.54 1142.24 1420.87 1142.24 1441.95C1133.45 1441.95 1122.91 1441.95 1112.37 1443.71C1112.37 1424.38 1112.37 1405.06 1112.37 1383.97C1122.91 1380.46 1131.7 1380.46 1142.24 1380.46Z" fill="white"/>
</svg>
