<svg id="Layer_1" data-name="Layer 1" xmlns="http://www.w3.org/2000/svg" viewBox="0 0 1988.85 1188.11"><defs><style>.cls-1{fill:#e11d47;}.cls-2{fill:gold;}.cls-3{opacity:0.2;}.cls-4{fill:#fff;}.cls-5{fill:silver;}.cls-6{fill:#ce8946;}.cls-7{fill:#f2d3bb;}.cls-8{fill:none;stroke:#fff;stroke-miterlimit:10;stroke-width:0.75px;}</style></defs><title>vecteezy_gold-silver-and-bronze-trophy-vector-illustration-isolated_31707800 [Converted]</title><rect class="cls-1" x="662.95" y="606.19" width="662.95" height="580.08"/><rect class="cls-1" x="1325.9" y="776.9" width="662.95" height="409.37"/><rect class="cls-1" y="699.71" width="662.95" height="486.56"/><path class="cls-2" d="M1141,1471.88c0,.86.07,1.76.07,2.7l241-1.17,0-4.47a13.9,13.9,0,0,0-5.14-10.72c-6-4.89-16-13.09-21.39-18.47a231,231,0,0,1-67.65-143q-.93-10.14-1-20.51c0-3.13,0-6.26.13-9.36l-52.9.25q.19,4.66.23,9.37,0,5.74-.23,11.49-.2,4.53-.59,9a231.52,231.52,0,0,1-20.08,76.88,242,242,0,0,1-31.57,51.56,190.68,190.68,0,0,1-21.2,22.36c-5.69,5.08-15.42,9-18.77,16C1140.81,1466.26,1140.92,1468.85,1141,1471.88Z" transform="translate(-265.17 -915.66)"/><path class="cls-2" d="M1215.91,1470.54l.25,52.59,166.11-.81-.26-52.92-166.1.81C1215.9,1470.32,1215.91,1470.43,1215.91,1470.54Z" transform="translate(-265.17 -915.66)"/><path class="cls-2" d="M1141.92,1463.9c3.35-7.06,13.08-10.94,18.77-16a190.68,190.68,0,0,0,21.2-22.36,242,242,0,0,0,31.57-51.56,231.52,231.52,0,0,0,20.08-76.88q.39-4.51.59-9l19.35,3.71s5.37,93.3-18.69,146.46a76.57,76.57,0,0,1-12.6,19.11c-2.86,3.24-6.16,8-6.28,12.9l-74.88.36v1.31C1140.92,1468.85,1140.81,1466.26,1141.92,1463.9Z" transform="translate(-265.17 -915.66)"/><path class="cls-2" d="M1215.91,1470.21c0,.11,0,.22,0,.33l.25,52.59-74.88.36-.25-51.61v-1.31Z" transform="translate(-265.17 -915.66)"/><path class="cls-2" d="M1233.54,1297.08a92.87,92.87,0,0,0,54.35-.29q-.93-10.14-1-20.51c0-3.13,0-6.26.13-9.36l-52.9.25q.19,4.66.23,9.37Q1234.41,1286.83,1233.54,1297.08Z" transform="translate(-265.17 -915.66)"/><path class="cls-2" d="M1064.38,940.24v.28q0,6.39.19,12.72v.09q.35,13.09,1.22,25.92c0,.54.07,1.07.1,1.61,5.32,75.18,24.28,142.91,52.31,195.21a315.44,315.44,0,0,0,16.4,27.3c27.79,41.23,62.1,69.08,99.73,77.91h0a112.39,112.39,0,0,0,52.64-.23,127.91,127.91,0,0,0,34.76-14.37c24.21-14.31,46.27-36.86,65.13-65.75q7.73-11.84,14.71-25h0c28.59-54.08,47.35-124.6,51.35-202.74q.43-8.49.64-17.1t.16-17.42v-.28a57.68,57.68,0,0,0-3.87-20.45L1068,919.75A57.82,57.82,0,0,0,1064.38,940.24Z" transform="translate(-265.17 -915.66)"/><path class="cls-2" d="M1064.38,940.24v.28q0,6.39.19,12.72v.09q.35,13.09,1.22,25.92c0,.54.07,1.07.1,1.61,5.32,75.18,24.28,142.91,52.31,195.21a315.44,315.44,0,0,0,16.4,27.3c27.79,41.23,62.1,69.08,99.73,77.91h0a112.9,112.9,0,0,0,26.4,3q-9.09-8.31-17.29-17.17c-113-121.94-103.56-317.26-103.42-347.73l-72,.35A57.82,57.82,0,0,0,1064.38,940.24Z" transform="translate(-265.17 -915.66)"/><g class="cls-3"><path class="cls-4" d="M1316,1188.24s14.91,18.44,29.67,7.26c14.41-10.92,77.77-117.37,73.13-277.46l-84.94.42C1338.35,975.44,1353.27,1082.63,1316,1188.24Z" transform="translate(-265.17 -915.66)"/></g><path class="cls-2" d="M1321.73,1266.69c24.21-14.31,46.27-36.86,65.13-65.75q7.73-11.84,14.71-25h0c28.59-54.08,47.35-124.6,51.35-202.74q.43-8.49.64-17.1t.16-17.42v-.28a57.68,57.68,0,0,0-3.87-20.45l-18.6.09c5.27,26.78,7.13,65.89-2.65,120.56C1410.32,1140.74,1362.91,1231.72,1321.73,1266.69Z" transform="translate(-265.17 -915.66)"/><path class="cls-2" d="M1423.33,1243.12c-.47-.17-7.37-2.74-11.49-13.12a34.53,34.53,0,0,1,10.46-39.25c42.56-35.08,162.88-88.53,165.74-181.47,2.57-83.6-74.85-106.11-113-87.53-10.93,5.31-18.64,14-20.36,25.57-4.45,30.17.43,48.37,5.31,58.35,3.44,7,6.88,10,7.09,10.13-.29-.78-20.9-56.89,31.3-70,40.63-10.24,75.73,54.8,48.52,106.67-40.58,77.32-153.06,97.51-160.87,153C1381.88,1234.49,1422.13,1242.87,1423.33,1243.12Z" transform="translate(-265.17 -915.66)"/><path class="cls-2" d="M931.2,1012.51c3.79,92.91,124.64,145.13,167.55,179.79a34.54,34.54,0,0,1,10.85,39.15c-4,10.42-10.88,13.06-11.34,13.23,1.19-.26,41.34-9,37-38.07-8.37-55.41-121.05-74.46-162.4-151.37-27.73-51.6,6.71-117,47.45-107.15,39.55,9.54,37.75,44,34.4,60.66a72.86,72.86,0,0,1-2.4,9.06c.51-.43,19.81-17.33,11.7-68.61-5-31.7-55-41.16-92.18-19.29C948,943.87,929.49,970.62,931.2,1012.51Z" transform="translate(-265.17 -915.66)"/><g class="cls-3"><path class="cls-4" d="M1480.8,926.76a66.75,66.75,0,0,1,7.3-2c2.46-.53,4.93-1,7.42-1.27a79.29,79.29,0,0,1,14.92-.48,63.11,63.11,0,0,1,28,8.29,68.12,68.12,0,0,1,21.13,19.89,101,101,0,0,1,13.07,26.27,87.16,87.16,0,0,1,4.24,28.89,99.09,99.09,0,0,1-5.21,28.95,119.93,119.93,0,0,1-5.58,13.8,137.11,137.11,0,0,1-7.08,13.19,207.2,207.2,0,0,1-17.55,24.55,156.31,156.31,0,0,0,19.93-23,141.46,141.46,0,0,0,8.08-13,117.54,117.54,0,0,0,6.43-14,95.53,95.53,0,0,0,6.41-30.28,87.58,87.58,0,0,0-.77-15.6c-.36-2.58-.83-5.15-1.43-7.68s-1.3-5-2.08-7.53a99.56,99.56,0,0,0-14.18-27.62q-2.33-3.14-4.94-6.06c-1.75-1.93-3.59-3.79-5.53-5.55a63.1,63.1,0,0,0-12.84-9,60.31,60.31,0,0,0-14.62-5.48,66.77,66.77,0,0,0-15.39-1.73,75.65,75.65,0,0,0-15.26,1.69A67.28,67.28,0,0,0,1480.8,926.76Z" transform="translate(-265.17 -915.66)"/></g><path class="cls-2" d="M1032.34,928.94a60.55,60.55,0,0,0-14.32-4.37,65.5,65.5,0,0,0-15.08-1,59.1,59.1,0,0,0-15,2.81,55.83,55.83,0,0,0-13.8,6.83,61.32,61.32,0,0,0-11.58,10.17c-1.71,1.92-3.31,3.93-4.83,6s-2.91,4.21-4.22,6.41c-.66,1.09-1.29,2.2-1.91,3.32s-1.2,2.25-1.75,3.4-1.11,2.29-1.63,3.45-1,2.33-1.51,3.51A94.92,94.92,0,0,0,942,984.08a90.38,90.38,0,0,0-2.18,15.2,88.32,88.32,0,0,0,.54,15.34,96.54,96.54,0,0,0,8.56,29.19,118.45,118.45,0,0,0,7.29,13.27,140.41,140.41,0,0,0,8.79,12.24,156.67,156.67,0,0,0,21,21.28,207,207,0,0,1-18.78-23,140.69,140.69,0,0,1-7.83-12.47A127.78,127.78,0,0,1,953,1042a100.64,100.64,0,0,1-7.27-28,86.24,86.24,0,0,1,1.8-28.65,93.34,93.34,0,0,1,4.32-13.79,108,108,0,0,1,6.23-13.08,68.77,68.77,0,0,1,18.56-21.68,55.56,55.56,0,0,1,26.52-10.49,65.46,65.46,0,0,1,7.29-.5c2.44,0,4.89.08,7.34.29a70,70,0,0,1,7.32,1A60.29,60.29,0,0,1,1032.34,928.94Z" transform="translate(-265.17 -915.66)"/><g class="cls-3"><path class="cls-4" d="M1280.58,1355.91c.27,1.41,17.81,91.42,25.92,100.07,1.93,2,3.17,7.16,4,13.77,1.92,16.23,1,41.53.48,52.91l42.32-.2-.26-52.92c.57-11.82-8.65-15.72-8.65-15.72C1311.54,1436.32,1281.05,1357.15,1280.58,1355.91Z" transform="translate(-265.17 -915.66)"/></g><path class="cls-2" d="M1459.94,1005.67c-7.85-44.07,3-69.61,15-83.92-10.93,5.31-18.64,14-20.36,25.57C1450.18,977.49,1455.06,995.69,1459.94,1005.67Z" transform="translate(-265.17 -915.66)"/><path class="cls-2" d="M971.92,929.92c10.49-6.33,23.22-8.2,35.3-7.8,10.58.34,21.54,1.54,31.28,5.94,10.7,4.82,17.49,13.52,20.1,24.92a72.21,72.21,0,0,1,1.52,10.37,122.1,122.1,0,0,1-7.79,54.41c.88-2.28,3.32-4.58,4.59-6.74a63.92,63.92,0,0,0,3.84-7.62,65.13,65.13,0,0,0,4.57-16.78c1.62-12.26.57-25.25-1.36-37.42-3-18.79-21.65-28.3-38.88-30.54A83.91,83.91,0,0,0,971.92,929.92Z" transform="translate(-265.17 -915.66)"/><path class="cls-4" d="M1220.14,1941.89l25.44-.17-.78-113.37-26.4.18-.2-29.07,58.14-.39,1,142.43,23.5-.16.18,27.13-80.66.55Z" transform="translate(-265.17 -915.66)"/><path class="cls-5" d="M492.76,1577.17c0,.75.06,1.54.06,2.36l211.15-1v-3.91a12.16,12.16,0,0,0-4.51-9.39c-5.29-4.29-14-11.47-18.74-16.19a202.34,202.34,0,0,1-59.28-125.26q-.81-8.88-.87-18c0-2.74,0-5.48.13-8.2l-46.36.22c.12,2.73.19,5.46.2,8.21,0,3.35,0,6.71-.2,10.06q-.18,4-.51,7.94a202.88,202.88,0,0,1-17.6,67.36,211.68,211.68,0,0,1-27.66,45.17,168,168,0,0,1-18.58,19.6c-5,4.45-13.51,7.85-16.44,14C492.56,1572.24,492.66,1574.51,492.76,1577.17Z" transform="translate(-265.17 -915.66)"/><path class="cls-5" d="M558.36,1576l.23,46.08,145.54-.71-.22-46.37-145.54.71A2.81,2.81,0,0,0,558.36,1576Z" transform="translate(-265.17 -915.66)"/><path class="cls-5" d="M493.54,1570.17c2.93-6.18,11.46-9.58,16.44-14a168,168,0,0,0,18.58-19.6,211.68,211.68,0,0,0,27.66-45.17,202.88,202.88,0,0,0,17.6-67.36q.33-4,.51-7.94l17,3.26s4.7,81.75-16.38,128.33a67.31,67.31,0,0,1-11,16.74c-2.51,2.84-5.4,7-5.5,11.3l-65.62.32v1.15C492.66,1574.51,492.56,1572.24,493.54,1570.17Z" transform="translate(-265.17 -915.66)"/><path class="cls-5" d="M558.37,1575.7a2.81,2.81,0,0,0,0,.29l.23,46.08-65.61.32-.22-45.22V1576Z" transform="translate(-265.17 -915.66)"/><path class="cls-5" d="M573.82,1424a81.37,81.37,0,0,0,47.61-.26q-.81-8.88-.87-18c0-2.74,0-5.48.13-8.2l-46.36.22c.12,2.73.19,5.46.2,8.21Q574.57,1415,573.82,1424Z" transform="translate(-265.17 -915.66)"/><path class="cls-5" d="M425.59,1111.34v.25c0,3.73.08,7.44.17,11.15v.08c.19,7.64.55,15.22,1.06,22.7q0,.72.09,1.41c4.66,65.88,21.27,125.23,45.83,171a278.74,278.74,0,0,0,14.37,23.92c24.35,36.13,54.41,60.53,87.38,68.27h0a98.4,98.4,0,0,0,46.12-.2,112,112,0,0,0,30.45-12.59c21.22-12.54,40.55-32.29,57.07-57.61q6.76-10.37,12.89-22h0c25.05-47.39,41.48-109.19,45-177.65q.39-7.43.56-15t.14-15.26v-.25a50.52,50.52,0,0,0-3.38-17.92l-334.55,1.63A50.64,50.64,0,0,0,425.59,1111.34Z" transform="translate(-265.17 -915.66)"/><path class="cls-5" d="M425.59,1111.34v.25c0,3.73.08,7.44.17,11.15v.08c.19,7.64.55,15.22,1.06,22.7q0,.72.09,1.41c4.66,65.88,21.27,125.23,45.83,171a278.74,278.74,0,0,0,14.37,23.92c24.35,36.13,54.41,60.53,87.38,68.27h0a98.59,98.59,0,0,0,23.13,2.64q-8-7.27-15.15-15c-99-106.84-90.74-278-90.62-304.67l-63.06.3A50.64,50.64,0,0,0,425.59,1111.34Z" transform="translate(-265.17 -915.66)"/><g class="cls-3"><path class="cls-4" d="M646.09,1328.64s13.07,16.16,26,6.36c12.63-9.57,68.14-102.84,64.07-243.1l-74.42.36C665.65,1142.19,678.72,1236.11,646.09,1328.64Z" transform="translate(-265.17 -915.66)"/></g><path class="cls-5" d="M651.08,1397.38c21.22-12.54,40.55-32.29,57.07-57.61q6.76-10.37,12.89-22h0c25.05-47.39,41.48-109.19,45-177.65q.39-7.43.56-15t.14-15.26v-.25a50.52,50.52,0,0,0-3.38-17.92l-16.31.08c4.62,23.47,6.26,57.73-2.32,105.64C728.71,1287,687.17,1366.74,651.08,1397.38Z" transform="translate(-265.17 -915.66)"/><path class="cls-5" d="M740.1,1376.72c-.41-.14-6.45-2.39-10.06-11.49a30.26,30.26,0,0,1,9.17-34.39c37.29-30.74,142.71-77.57,145.22-159,2.25-73.25-65.59-93-99-76.7-9.58,4.66-16.34,12.26-17.84,22.4-3.91,26.44.37,42.39,4.65,51.14,3,6.13,6,8.72,6.21,8.87-.25-.68-18.31-49.85,27.42-61.37,35.6-9,66.36,48,42.52,93.46-35.56,67.75-134.12,85.44-141,134.06C703.79,1369.17,739.06,1376.51,740.1,1376.72Z" transform="translate(-265.17 -915.66)"/><path class="cls-5" d="M308.91,1174.66c3.31,81.41,109.2,127.17,146.8,157.54a30.27,30.27,0,0,1,9.51,34.3c-3.52,9.14-9.53,11.44-9.94,11.59,1-.22,36.23-7.92,32.39-33.35-7.34-48.55-106.07-65.24-142.3-132.64-24.3-45.2,5.88-102.49,41.58-93.88,34.65,8.36,33.07,38.59,30.13,53.15a59.18,59.18,0,0,1-2.1,7.94c.45-.38,17.36-15.19,10.26-60.11-4.39-27.78-48.18-36.07-80.77-16.91C323.65,1114.53,307.41,1138,308.91,1174.66Z" transform="translate(-265.17 -915.66)"/><g class="cls-3"><path class="cls-4" d="M790.46,1099.53a57.06,57.06,0,0,1,6.4-1.73q3.23-.71,6.5-1.11a68.92,68.92,0,0,1,13.07-.42,55.16,55.16,0,0,1,24.52,7.26A59.38,59.38,0,0,1,859.47,1121a90.09,90.09,0,0,1,6.57,11.09,91.26,91.26,0,0,1,4.89,11.92,76.61,76.61,0,0,1,3.71,25.32,86.62,86.62,0,0,1-4.57,25.37,105.7,105.7,0,0,1-4.88,12.09,124.89,124.89,0,0,1-6.21,11.56,180.44,180.44,0,0,1-15.38,21.5,136.13,136.13,0,0,0,17.47-20.15,124.73,124.73,0,0,0,7.08-11.41,103.92,103.92,0,0,0,5.63-12.27,83.91,83.91,0,0,0,5.62-26.54,77,77,0,0,0-.68-13.66q-.47-3.39-1.25-6.74c-.49-2.23-1.14-4.42-1.83-6.59a86.94,86.94,0,0,0-12.41-24.2q-2.06-2.74-4.33-5.31a67.39,67.39,0,0,0-4.85-4.86,55.66,55.66,0,0,0-11.26-7.87,53.18,53.18,0,0,0-12.8-4.8,58.62,58.62,0,0,0-13.49-1.51,65.74,65.74,0,0,0-13.37,1.48A59.49,59.49,0,0,0,790.46,1099.53Z" transform="translate(-265.17 -915.66)"/></g><g class="cls-3"><path class="cls-4" d="M397.52,1101.44a53.35,53.35,0,0,0-12.54-3.82,57.83,57.83,0,0,0-13.22-.87,51.75,51.75,0,0,0-13.16,2.47,48.83,48.83,0,0,0-12.09,6,54.21,54.21,0,0,0-10.15,8.91c-1.5,1.68-2.89,3.45-4.23,5.26s-2.55,3.69-3.7,5.61c-.58,1-1.12,1.94-1.67,2.91s-1.05,2-1.53,3-1,2-1.43,3-.89,2-1.32,3.07a83.76,83.76,0,0,0-4.09,12.78,75.94,75.94,0,0,0-1.44,26.76,84.83,84.83,0,0,0,7.5,25.58,104,104,0,0,0,6.39,11.63,122.31,122.31,0,0,0,7.71,10.72A137,137,0,0,0,357,1243.09,182.86,182.86,0,0,1,340.52,1223a121.88,121.88,0,0,1-6.86-10.93,109.54,109.54,0,0,1-5.64-11.52,88.22,88.22,0,0,1-6.37-24.54,75.73,75.73,0,0,1,1.58-25.11A81.91,81.91,0,0,1,327,1138.8a93.27,93.27,0,0,1,5.46-11.46,60.31,60.31,0,0,1,16.26-19,48.81,48.81,0,0,1,23.24-9.19,56.67,56.67,0,0,1,6.39-.44c2.14,0,4.29.07,6.43.25s4.29.5,6.42.9A51.52,51.52,0,0,1,397.52,1101.44Z" transform="translate(-265.17 -915.66)"/></g><g class="cls-3"><path class="cls-4" d="M615,1475.55c.24,1.24,15.6,80.1,22.71,87.68,1.69,1.8,2.78,6.28,3.46,12.07,1.69,14.22.9,36.39.42,46.36l37.08-.18-.22-46.36c.49-10.36-7.58-13.77-7.58-13.77C642.16,1546,615.44,1476.64,615,1475.55Z" transform="translate(-265.17 -915.66)"/></g><path class="cls-5" d="M772.19,1168.68c-6.89-38.62,2.63-61,13.19-73.54-9.58,4.66-16.34,12.26-17.84,22.4C763.63,1144,767.91,1159.93,772.19,1168.68Z" transform="translate(-265.17 -915.66)"/><path class="cls-5" d="M344.58,1102.3c9.2-5.54,20.35-7.18,30.94-6.84,9.26.31,18.87,1.36,27.4,5.21,9.38,4.23,15.32,11.84,17.61,21.83a62.06,62.06,0,0,1,1.33,9.09,106.82,106.82,0,0,1-6.83,47.68c.78-2,2.92-4,4-5.91a55.5,55.5,0,0,0,3.36-6.67,57,57,0,0,0,4-14.71c1.42-10.74.5-22.12-1.19-32.78-2.6-16.47-19-24.8-34.07-26.76A73.44,73.44,0,0,0,344.58,1102.3Z" transform="translate(-265.17 -915.66)"/><path class="cls-6" d="M1829.11,1656.25c0,.67.05,1.38.05,2.12l189.92-.92v-3.52a11,11,0,0,0-4-8.45c-4.76-3.85-12.57-10.32-16.86-14.56a182,182,0,0,1-53.32-112.66q-.73-8-.78-16.16,0-3.72.11-7.39l-41.69.21c.1,2.45.17,4.91.18,7.38q0,4.53-.18,9c-.11,2.38-.26,4.76-.47,7.14a182.21,182.21,0,0,1-15.82,60.59,190.57,190.57,0,0,1-24.88,40.63,150.45,150.45,0,0,1-16.71,17.62c-4.48,4-12.15,7.06-14.79,12.62C1828.93,1651.81,1829,1653.85,1829.11,1656.25Z" transform="translate(-265.17 -915.66)"/><path class="cls-6" d="M1888.12,1655.19l.2,41.44,130.91-.64-.21-41.7-130.9.64A1.13,1.13,0,0,0,1888.12,1655.19Z" transform="translate(-265.17 -915.66)"/><path class="cls-6" d="M1829.81,1650c2.64-5.56,10.31-8.61,14.79-12.62a150.45,150.45,0,0,0,16.71-17.62,190.57,190.57,0,0,0,24.88-40.63,182.21,182.21,0,0,0,15.82-60.59c.21-2.38.36-4.76.47-7.14l15.25,2.93s4.23,73.53-14.73,115.42a60.6,60.6,0,0,1-9.93,15.06c-2.26,2.56-4.86,6.32-5,10.17l-59,.28v1C1829,1653.85,1828.93,1651.81,1829.81,1650Z" transform="translate(-265.17 -915.66)"/><path class="cls-6" d="M1888.12,1654.93a1.13,1.13,0,0,0,0,.26l.2,41.44-59,.29-.2-40.67v-1Z" transform="translate(-265.17 -915.66)"/><path class="cls-6" d="M1902,1518.49a73.15,73.15,0,0,0,42.83-.23q-.73-8-.78-16.16,0-3.72.11-7.39l-41.69.21c.1,2.45.17,4.91.18,7.38C1902.68,1507.7,1902.47,1513.11,1902,1518.49Z" transform="translate(-265.17 -915.66)"/><path class="cls-6" d="M1768.7,1237.26v.23c0,3.35.07,6.69.15,10v.08q.27,10.31,1,20.42c0,.42,0,.84.08,1.27,4.19,59.25,19.13,112.63,41.22,153.84a246.81,246.81,0,0,0,12.93,21.51c21.9,32.5,48.94,54.45,78.59,61.41h0a88.65,88.65,0,0,0,41.48-.18,101,101,0,0,0,27.39-11.32c19.09-11.28,36.47-29,51.33-51.82,4.06-6.21,7.93-12.81,11.59-19.74h0c22.53-42.62,37.32-98.2,40.47-159.77q.35-6.69.5-13.48t.13-13.73v-.22a45.3,45.3,0,0,0-3.05-16.12l-300.9,1.47A45.19,45.19,0,0,0,1768.7,1237.26Z" transform="translate(-265.17 -915.66)"/><path class="cls-6" d="M1768.7,1237.26v.23c0,3.35.07,6.69.15,10v.08q.27,10.31,1,20.42c0,.42,0,.84.08,1.27,4.19,59.25,19.13,112.63,41.22,153.84a246.81,246.81,0,0,0,12.93,21.51c21.9,32.5,48.94,54.45,78.59,61.41h0a88.49,88.49,0,0,0,20.8,2.37q-7.15-6.54-13.62-13.53c-89-96.1-81.62-250-81.51-274l-56.72.28A45.19,45.19,0,0,0,1768.7,1237.26Z" transform="translate(-265.17 -915.66)"/><g class="cls-3"><path class="cls-7" d="M1967,1432.71s11.75,14.54,23.38,5.72c11.36-8.6,61.29-92.5,57.63-218.66l-66.93.33C1984.61,1265,1996.37,1349.48,1967,1432.71Z" transform="translate(-265.17 -915.66)"/></g><path class="cls-6" d="M1971.51,1494.54c19.09-11.28,36.47-29,51.33-51.82,4.06-6.21,7.93-12.81,11.59-19.74h0c22.53-42.62,37.32-98.2,40.47-159.77q.35-6.69.5-13.48t.13-13.73v-.22a45.3,45.3,0,0,0-3.05-16.12l-14.66.08c4.15,21.1,5.63,51.92-2.09,95C2041.33,1395.28,2004,1467,1971.51,1494.54Z" transform="translate(-265.17 -915.66)"/><path class="cls-6" d="M2051.58,1476c-.37-.13-5.8-2.15-9-10.34a27.21,27.21,0,0,1,8.24-30.93c33.54-27.65,128.36-69.77,130.62-143,2-65.88-59-83.62-89.09-69-8.61,4.19-14.7,11-16.05,20.15-3.51,23.78.34,38.13,4.19,46,2.71,5.52,5.41,7.84,5.58,8-.22-.61-16.46-44.83,24.67-55.19,32-8.07,59.68,43.18,38.24,84.06-32,60.94-120.63,76.85-126.78,120.57C2018.92,1469.16,2050.64,1475.77,2051.58,1476Z" transform="translate(-265.17 -915.66)"/><path class="cls-6" d="M1663.74,1294.22c3,73.22,98.23,114.38,132,141.69a27.22,27.22,0,0,1,8.56,30.85c-3.17,8.22-8.57,10.29-8.94,10.43.94-.2,32.58-7.13,29.13-30-6.6-43.67-95.4-58.68-128-119.3-21.85-40.66,5.29-92.19,37.4-84.44,31.16,7.52,29.75,34.71,27.1,47.81a55.33,55.33,0,0,1-1.89,7.14c.41-.34,15.62-13.66,9.23-54.07-4-25-43.34-32.44-72.65-15.21C1677,1240.13,1662.4,1261.21,1663.74,1294.22Z" transform="translate(-265.17 -915.66)"/><g class="cls-3"><path class="cls-7" d="M2096.88,1226.64a51.93,51.93,0,0,1,5.75-1.56c1.93-.42,3.88-.76,5.84-1a62.59,62.59,0,0,1,11.76-.38,49.8,49.8,0,0,1,22.06,6.54,53.57,53.57,0,0,1,16.65,15.67,79.93,79.93,0,0,1,10.31,20.7,69,69,0,0,1,3.34,22.77,78,78,0,0,1-4.11,22.82,94.47,94.47,0,0,1-4.4,10.88,108.21,108.21,0,0,1-5.58,10.39,162.32,162.32,0,0,1-13.83,19.34,122.5,122.5,0,0,0,15.71-18.12,112.5,112.5,0,0,0,6.37-10.26,93.4,93.4,0,0,0,5.07-11,75.52,75.52,0,0,0,5-23.87,70.18,70.18,0,0,0-.61-12.29c-.29-2-.66-4.06-1.13-6.06s-1-4-1.64-5.93a78.43,78.43,0,0,0-11.17-21.76c-1.23-1.65-2.52-3.25-3.89-4.78s-2.84-3-4.36-4.37a49.63,49.63,0,0,0-10.13-7.07,47.27,47.27,0,0,0-11.52-4.32,52.33,52.33,0,0,0-12.12-1.36,59.74,59.74,0,0,0-12,1.32A53.71,53.71,0,0,0,2096.88,1226.64Z" transform="translate(-265.17 -915.66)"/></g><g class="cls-3"><path class="cls-7" d="M1743.45,1228.36a48,48,0,0,0-11.28-3.44,52,52,0,0,0-11.89-.78,46.27,46.27,0,0,0-11.84,2.22,43.72,43.72,0,0,0-10.87,5.38,48.41,48.41,0,0,0-9.13,8c-1.35,1.52-2.61,3.11-3.8,4.73s-2.3,3.32-3.33,5c-.52.86-1,1.74-1.51,2.62s-1,1.77-1.37,2.68-.88,1.8-1.29,2.72-.8,1.84-1.19,2.77a75.35,75.35,0,0,0-3.68,11.49,71.15,71.15,0,0,0-1.71,12,69.72,69.72,0,0,0,.42,12.09,75.8,75.8,0,0,0,6.75,23,93.72,93.72,0,0,0,5.74,10.46,112.13,112.13,0,0,0,6.94,9.64,123.25,123.25,0,0,0,16.56,16.77,165.58,165.58,0,0,1-14.8-18.1,111.29,111.29,0,0,1-6.16-9.82,97.4,97.4,0,0,1-5.07-10.37,79.22,79.22,0,0,1-5.73-22.07,67.76,67.76,0,0,1,1.42-22.58A73.06,73.06,0,0,1,1680,1262a84.63,84.63,0,0,1,4.91-10.31,54.25,54.25,0,0,1,14.62-17.09,43.9,43.9,0,0,1,20.91-8.26,52.37,52.37,0,0,1,5.74-.4q2.89,0,5.79.23a56.38,56.38,0,0,1,5.77.81A47.16,47.16,0,0,1,1743.45,1228.36Z" transform="translate(-265.17 -915.66)"/></g><g class="cls-3"><path class="cls-7" d="M1939.08,1564.85c.21,1.11,14,72,20.43,78.86,1.52,1.62,2.5,5.64,3.11,10.85,1.52,12.79.81,32.74.38,41.71l33.35-.17-.2-41.7c.45-9.31-6.82-12.39-6.82-12.39C1963.48,1628.22,1939.46,1565.83,1939.08,1564.85Z" transform="translate(-265.17 -915.66)"/></g><path class="cls-6" d="M2080.44,1288.83c-6.19-34.73,2.37-54.86,11.86-66.14-8.61,4.19-14.7,11-16.05,20.15C2072.74,1266.62,2076.59,1281,2080.44,1288.83Z" transform="translate(-265.17 -915.66)"/><path class="cls-6" d="M1695.83,1229.13c8.27-5,18.3-6.46,27.82-6.15,8.34.27,17,1.22,24.66,4.68,8.43,3.81,13.77,10.66,15.83,19.64a56.47,56.47,0,0,1,1.2,8.17,96.21,96.21,0,0,1-6.14,42.89c.69-1.79,2.62-3.61,3.62-5.31a49.64,49.64,0,0,0,3-6,51,51,0,0,0,3.61-13.22c1.28-9.66.45-19.9-1.07-29.49-2.34-14.81-17.07-22.31-30.64-24.07A66.13,66.13,0,0,0,1695.83,1229.13Z" transform="translate(-265.17 -915.66)"/><path class="cls-4" d="M545.52,1968.72v-17L563,1935.54c34.77-32.26,51.13-50,51.36-69.53,0-13.18-7-24.77-26.36-24.77-13,0-24.09,6.59-31.59,12.27l-8.18-19.77c10.68-8.63,26.82-15.22,45.45-15.22,32.72,0,48.63,20.68,48.63,44.76,0,25.91-18.64,46.81-44.31,70.67l-13,11.14v.45h60.68v23.18Z" transform="translate(-265.17 -915.66)"/><path class="cls-4" d="M1873.39,1954.75c6.15,3.69,21.14,9.83,36.38,9.83,23.1,0,32.44-13,32.19-25.56,0-18.92-17.69-27-36.13-27h-14v-22.12h13.51c14,0,31.71-6.39,31.71-22.37,0-10.81-8.11-19.91-25.56-19.91-13,0-26,5.66-32.69,10.08l-6.88-21.88c9.09-6.38,26.79-12.28,46-12.28,32.93,0,49.89,18.18,49.89,39.07,0,16.72-9.83,30.48-29.49,37.36v.49c19.41,3.45,35.14,18.19,35.14,39.82,0,27-22.61,48.42-62.18,48.42-19.41,0-36.13-5.41-44.73-11.06Z" transform="translate(-265.17 -915.66)"/><line class="cls-8" x1="1325.9" y1="776.9" x2="1325.9" y2="1188.11"/><line class="cls-8" x1="662.95" y1="699.71" x2="666.79" y2="1187.19"/></svg>